<?xml version="1.0" encoding="UTF-8" standalone="no"?>
<!-- Created with Inkscape (http://www.inkscape.org/) -->

<svg
   width="31.999998"
   height="31.999998"
   viewBox="0 0 8.466666 8.4666661"
   version="1.1"
   id="svg5"
   xmlns="http://www.w3.org/2000/svg"
   xmlns:svg="http://www.w3.org/2000/svg">
  <defs
     id="defs2" />
  <g
     id="layer1">
    <path
       style="fill:#ffffff;stroke-width:0.264583"
       id="path113"
       d="m 1.5320844,1.3565173 -0.89720696,0 -0.44860345,-0.77700409 0.44860352,-0.777004 0.89720699,4e-8 0.4486034,0.77700405 z"
       transform="matrix(1.6219316,0,0,1.6219316,2.4760013,0.32031656)" />
    <path
       style="fill:#ffffff;stroke-width:0.264583"
       id="path113-2"
       d="m 1.5320844,1.3565173 -0.89720696,0 -0.44860345,-0.77700409 0.44860352,-0.777004 0.89720699,4e-8 0.4486034,0.77700405 z"
       transform="matrix(1.6219316,0,0,1.6219316,5.0292305,1.802777)" />
    <path
       style="fill:#ffffff;stroke-width:0.264583"
       id="path113-2-9"
       d="m 1.5320844,1.3565173 -0.89720696,0 -0.44860345,-0.77700409 0.44860352,-0.777004 0.89720699,4e-8 0.4486034,0.77700405 z"
       transform="matrix(1.6219316,0,0,1.6219316,-0.07722784,1.802777)" />
    <path
       style="fill:#ffffff;stroke-width:0.264583"
       id="path113-2-3"
       d="m 1.5320844,1.3565173 -0.89720696,0 -0.44860345,-0.77700409 0.44860352,-0.777004 0.89720699,4e-8 0.4486034,0.77700405 z"
       transform="matrix(1.6219316,0,0,1.6219316,-0.07722784,4.784102)" />
    <path
       style="fill:#ffffff;stroke-width:0.264583"
       id="path113-7"
       d="m 1.5320844,1.3565173 -0.89720696,0 -0.44860345,-0.77700409 0.44860352,-0.777004 0.89720699,4e-8 0.4486034,0.77700405 z"
       transform="matrix(1.6219316,0,0,1.6219316,5.0292305,4.784102)" />
    <path
       style="fill:#ffffff;stroke-width:0.264583"
       id="path113-0"
       d="m 1.5320844,1.3565173 -0.89720696,0 -0.44860345,-0.77700409 0.44860352,-0.777004 0.89720699,4e-8 0.4486034,0.77700405 z"
       transform="matrix(1.6219316,0,0,1.6219316,2.4760013,6.2665624)" />
  </g>
</svg>
